<svg width="78" height="51" viewBox="0 0 78 51" fill="none" xmlns="http://www.w3.org/2000/svg">
<path d="M3.61816 0.90918L10.8926 17.9082L11.3369 16.8672L4.53223 0.90918H3.61816ZM9.57227 0.541016L6.24609 1.01074C6.72005 2.68652 7.46484 4.70508 8.48047 7.06641L10.2451 11.1797C10.6344 12.1191 11.2142 13.321 11.9844 14.7852C12.2891 14.252 12.6488 13.541 13.0635 12.6523C13.4867 11.7637 13.8548 10.9342 14.168 10.1641L16.1484 5.4541C16.9186 3.56673 17.4561 2.08561 17.7607 1.01074L13.9141 0.541016V0.414062H21.4551V0.515625L19.1445 1.01074C18.6452 1.78092 17.9173 3.30436 16.9609 5.58105L12.6445 15.8262C12.0352 17.2565 11.5739 18.488 11.2607 19.5205H11.083C10.5921 18.124 10.0716 16.7995 9.52148 15.5469L5.48438 6.12695C4.73112 4.35807 3.88477 2.64421 2.94531 0.985352L0.710938 0.541016V0.414062H9.57227V0.541016ZM32.8809 0.147461C34.6836 0.147461 36.2451 0.447917 37.5654 1.04883C38.8857 1.64974 39.9648 2.43685 40.8027 3.41016C41.6491 4.38346 42.2669 5.42025 42.6562 6.52051C43.054 7.6123 43.2529 8.66178 43.2529 9.66895C43.2529 10.82 43.0286 11.9499 42.5801 13.0586C42.14 14.1673 41.484 15.1829 40.6123 16.1055C39.749 17.0195 38.6742 17.7516 37.3877 18.3018C36.1097 18.8519 34.6836 19.127 33.1094 19.127C30.8327 19.127 28.903 18.6361 27.3203 17.6543C25.7376 16.6641 24.5697 15.4411 23.8164 13.9854C23.0632 12.5296 22.6865 11.1077 22.6865 9.71973C22.6865 8.49251 22.9235 7.30339 23.3975 6.15234C23.8799 5.0013 24.5739 3.97298 25.4795 3.06738C26.3936 2.15332 27.4854 1.43815 28.7549 0.921875C30.0244 0.405599 31.3997 0.147461 32.8809 0.147461ZM32.957 1.03613C31.6452 1.03613 30.4307 1.37891 29.3135 2.06445C28.2048 2.75 27.3203 3.74023 26.6602 5.03516C26.0085 6.33008 25.6826 7.85775 25.6826 9.61816C25.6826 11.514 26.0381 13.1178 26.749 14.4297C27.4684 15.7331 28.3867 16.7021 29.5039 17.3369C30.6296 17.9632 31.7891 18.2764 32.9824 18.2764C33.9557 18.2764 34.8783 18.0902 35.75 17.7178C36.6217 17.3454 37.4004 16.8037 38.0859 16.0928C38.7715 15.3734 39.3047 14.4932 39.6855 13.4521C40.0749 12.4027 40.2695 11.2347 40.2695 9.94824C40.2695 8.18783 40.0664 6.78288 39.6602 5.7334C39.2539 4.68392 38.6572 3.76562 37.8701 2.97852C37.2015 2.3099 36.4398 1.81901 35.585 1.50586C34.7386 1.19271 33.8626 1.03613 32.957 1.03613ZM33.6045 0.515625V0.642578C34.4255 0.701823 35.2507 0.896484 36.0801 1.22656C36.9095 1.54818 37.6839 2.05599 38.4033 2.75C39.1312 3.43555 39.7152 4.3623 40.1553 5.53027C40.5954 6.69824 40.8154 8.10319 40.8154 9.74512C40.8154 10.82 40.6842 11.8483 40.4219 12.8301C40.168 13.8118 39.7533 14.7174 39.1777 15.5469C38.6107 16.3763 37.8659 17.0618 36.9434 17.6035C36.0208 18.1452 34.9163 18.4795 33.6299 18.6064V18.7461C34.7132 18.6953 35.7415 18.4626 36.7148 18.0479C37.6882 17.6331 38.5514 17.0407 39.3047 16.2705C40.0664 15.4919 40.6673 14.5439 41.1074 13.4268C41.5475 12.3096 41.7676 11.0654 41.7676 9.69434C41.7676 8.19629 41.5391 6.87598 41.082 5.7334C40.625 4.58236 40.0029 3.62598 39.2158 2.86426C38.4287 2.10254 37.5527 1.52702 36.5879 1.1377C35.6315 0.748372 34.637 0.541016 33.6045 0.515625ZM32.3604 0.642578V0.515625C31.1755 0.524089 30.0202 0.777995 28.8945 1.27734C27.7689 1.77669 26.7786 2.45378 25.9238 3.30859C25.069 4.16341 24.4004 5.13672 23.918 6.22852C23.444 7.32031 23.207 8.46712 23.207 9.66895C23.207 11.1416 23.6048 12.5762 24.4004 13.9727C25.2044 15.3607 26.3132 16.4906 27.7266 17.3623C29.14 18.234 30.693 18.6953 32.3857 18.7461V18.6064C30.7438 18.4626 29.2923 17.9505 28.0312 17.0703C26.7702 16.1901 25.8096 15.0983 25.1494 13.7949C24.4977 12.4915 24.1719 11.1416 24.1719 9.74512C24.1719 8.59408 24.3623 7.48958 24.7432 6.43164C25.124 5.3737 25.6742 4.43001 26.3936 3.60059C27.113 2.77116 27.9805 2.09831 28.9961 1.58203C30.0202 1.06576 31.1416 0.752604 32.3604 0.642578ZM48.3564 0.90918V18.5049H49.2451V0.90918H48.3564ZM54.082 19H44.4844V18.873L47.582 18.4033C47.7259 17.3454 47.8317 16.0716 47.8994 14.582C47.9756 13.084 48.0137 11.6198 48.0137 10.1895V8.05664C48.0137 5.15365 47.8867 2.79655 47.6328 0.985352L44.4844 0.541016V0.414062H54.082V0.541016L50.9082 0.985352C50.8151 1.80632 50.7474 2.55111 50.7051 3.21973C50.6628 3.87988 50.6247 4.68392 50.5908 5.63184C50.557 6.57129 50.54 7.45573 50.54 8.28516V11.0908C50.54 11.6071 50.557 12.4535 50.5908 13.6299C50.6331 14.7979 50.6839 15.7881 50.7432 16.6006C50.8109 17.4131 50.8743 18.0225 50.9336 18.4287L54.082 18.873V19ZM54.3613 0.541016V0.414062H60.7725C61.1956 0.989583 61.7415 1.68359 62.4102 2.49609C63.0872 3.30859 63.6882 4.00684 64.2129 4.59082L69.9004 10.9131C70.6536 11.734 71.2376 12.3688 71.6523 12.8174C72.0755 13.266 72.6214 13.8118 73.29 14.4551C73.3408 13.8711 73.3747 13.3252 73.3916 12.8174C73.4085 12.3096 73.417 11.8314 73.417 11.3828V5.89844C73.417 3.92643 73.3197 2.2972 73.125 1.01074L70.04 0.541016V0.414062H77.5938V0.541016L74.5088 1.03613C74.348 2.22103 74.2676 3.736 74.2676 5.58105V19.4951H74.1406C72.8457 17.8532 71.5635 16.3171 70.2939 14.8867L62.5244 6.22852C61.3734 5.0013 60.3916 4.02376 59.5791 3.2959C59.4606 4.44694 59.4014 5.52181 59.4014 6.52051V14.5566C59.4014 15.6315 59.486 16.9137 59.6553 18.4033L62.8799 18.873V19H55.1611V18.873L58.2842 18.4287C58.3857 17.8193 58.4577 16.9518 58.5 15.8262C58.5423 14.7005 58.5635 13.6976 58.5635 12.8174V6.59668C58.5635 5.86035 58.5508 5.13249 58.5254 4.41309C58.5 3.68522 58.4535 2.96582 58.3857 2.25488L56.6973 1.01074L54.3613 0.541016ZM58.1572 0.883789L73.4932 17.9336V16.7402L59.2236 0.883789H58.1572ZM18.9033 31.9092V45.1885C18.9033 45.7979 18.7891 46.4495 18.5605 47.1436C18.332 47.8291 17.93 48.4215 17.3545 48.9209C16.7874 49.4202 16.0299 49.6742 15.082 49.6826L15.1328 49.8223C16.2839 49.763 17.2021 49.5007 17.8877 49.0352C18.5732 48.5697 19.0599 47.9391 19.3477 47.1436C19.6439 46.348 19.792 45.3916 19.792 44.2744V31.9092H18.9033ZM21.1123 37.9902V43.7285C21.1123 45.8359 20.5876 47.4398 19.5381 48.54C18.4971 49.6318 17.1048 50.1777 15.3613 50.1777C15.0736 50.1777 14.7012 50.1523 14.2441 50.1016C13.7871 50.0592 13.3216 49.9958 12.8477 49.9111C12.3822 49.8265 11.9294 49.708 11.4893 49.5557L10.9688 45.4043H11.1592L12.4541 48.5908C13.2751 49.1325 14.1172 49.4033 14.9805 49.4033C15.8945 49.4033 16.7197 49.0521 17.4561 48.3496C18.1924 47.6387 18.5605 46.4199 18.5605 44.6934V38.4854C18.5605 37.5628 18.5267 36.4245 18.459 35.0703C18.3913 33.7161 18.3066 32.6878 18.2051 31.9854L14.8408 31.541V31.4141H24.0703V31.541L21.4297 32.0107C21.2181 33.9404 21.1123 35.9336 21.1123 37.9902ZM35.4199 31.1475C37.2227 31.1475 38.7842 31.4479 40.1045 32.0488C41.4248 32.6497 42.5039 33.4368 43.3418 34.4102C44.1882 35.3835 44.806 36.4202 45.1953 37.5205C45.5931 38.6123 45.792 39.6618 45.792 40.6689C45.792 41.82 45.5677 42.9499 45.1191 44.0586C44.679 45.1673 44.0231 46.1829 43.1514 47.1055C42.2881 48.0195 41.2132 48.7516 39.9268 49.3018C38.6488 49.8519 37.2227 50.127 35.6484 50.127C33.3717 50.127 31.4421 49.6361 29.8594 48.6543C28.2767 47.6641 27.1087 46.4411 26.3555 44.9854C25.6022 43.5296 25.2256 42.1077 25.2256 40.7197C25.2256 39.4925 25.4626 38.3034 25.9365 37.1523C26.4189 36.0013 27.113 34.973 28.0186 34.0674C28.9326 33.1533 30.0244 32.4382 31.2939 31.9219C32.5635 31.4056 33.9388 31.1475 35.4199 31.1475ZM35.4961 32.0361C34.1842 32.0361 32.9697 32.3789 31.8525 33.0645C30.7438 33.75 29.8594 34.7402 29.1992 36.0352C28.5475 37.3301 28.2217 38.8577 28.2217 40.6182C28.2217 42.514 28.5771 44.1178 29.2881 45.4297C30.0075 46.7331 30.9258 47.7021 32.043 48.3369C33.1686 48.9632 34.3281 49.2764 35.5215 49.2764C36.4948 49.2764 37.4173 49.0902 38.2891 48.7178C39.1608 48.3454 39.9395 47.8037 40.625 47.0928C41.3105 46.3734 41.8438 45.4932 42.2246 44.4521C42.6139 43.4027 42.8086 42.2347 42.8086 40.9482C42.8086 39.1878 42.6055 37.7829 42.1992 36.7334C41.793 35.6839 41.1963 34.7656 40.4092 33.9785C39.7406 33.3099 38.9788 32.819 38.124 32.5059C37.2777 32.1927 36.4017 32.0361 35.4961 32.0361ZM36.1436 31.5156V31.6426C36.9645 31.7018 37.7897 31.8965 38.6191 32.2266C39.4486 32.5482 40.223 33.056 40.9424 33.75C41.6702 34.4355 42.2542 35.3623 42.6943 36.5303C43.1344 37.6982 43.3545 39.1032 43.3545 40.7451C43.3545 41.82 43.2233 42.8483 42.9609 43.8301C42.707 44.8118 42.2923 45.7174 41.7168 46.5469C41.1497 47.3763 40.4049 48.0618 39.4824 48.6035C38.5599 49.1452 37.4554 49.4795 36.1689 49.6064V49.7461C37.2523 49.6953 38.2806 49.4626 39.2539 49.0479C40.2272 48.6331 41.0905 48.0407 41.8438 47.2705C42.6055 46.4919 43.2064 45.5439 43.6465 44.4268C44.0866 43.3096 44.3066 42.0654 44.3066 40.6943C44.3066 39.1963 44.0781 37.876 43.6211 36.7334C43.1641 35.5824 42.542 34.626 41.7549 33.8643C40.9678 33.1025 40.0918 32.527 39.127 32.1377C38.1706 31.7484 37.1761 31.541 36.1436 31.5156ZM34.8994 31.6426V31.5156C33.7145 31.5241 32.5592 31.778 31.4336 32.2773C30.3079 32.7767 29.3177 33.4538 28.4629 34.3086C27.6081 35.1634 26.9395 36.1367 26.457 37.2285C25.9831 38.3203 25.7461 39.4671 25.7461 40.6689C25.7461 42.1416 26.1439 43.5762 26.9395 44.9727C27.7435 46.3607 28.8522 47.4906 30.2656 48.3623C31.679 49.234 33.2321 49.6953 34.9248 49.7461V49.6064C33.2829 49.4626 31.8314 48.9505 30.5703 48.0703C29.3092 47.1901 28.3486 46.0983 27.6885 44.7949C27.0368 43.4915 26.7109 42.1416 26.7109 40.7451C26.7109 39.5941 26.9014 38.4896 27.2822 37.4316C27.6631 36.3737 28.2132 35.43 28.9326 34.6006C29.652 33.7712 30.5195 33.0983 31.5352 32.582C32.5592 32.0658 33.6807 31.7526 34.8994 31.6426ZM56.3037 49.5049H57.167V41.5703L51.124 31.8838H50.1973L56.3037 41.6592V49.5049ZM49.4609 31.9854L46.8965 31.541V31.4141H56.7734V31.541L52.9775 31.9854C53.5446 33.238 54.3444 34.6979 55.377 36.3652C56.4095 38.0326 57.332 39.3867 58.1445 40.4277C59.0332 39.446 60.0827 38.0706 61.293 36.3018C62.5033 34.5329 63.4046 33.0941 63.9971 31.9854L60.2773 31.541V31.4141H67.666V31.5664L65.4824 31.9854C64.9831 32.5778 64.5007 33.1872 64.0352 33.8135C63.5697 34.4398 62.9688 35.2777 62.2324 36.3271C61.4961 37.3766 60.9163 38.2188 60.4932 38.8535C60.07 39.4798 59.4352 40.4404 58.5889 41.7354C58.5212 42.7764 58.4873 43.9359 58.4873 45.2139C58.4873 46.9574 58.6185 48.3623 58.8809 49.4287L62.0293 49.873V50H52.4062V49.873L55.4912 49.4287C55.6266 48.8955 55.7324 48.1676 55.8086 47.2451C55.8932 46.3226 55.9355 45.4551 55.9355 44.6426C55.9355 44.0332 55.9102 43.0811 55.8594 41.7861C55.3685 40.889 54.7422 39.8268 53.9805 38.5996C53.2272 37.3639 52.4486 36.1579 51.6445 34.9814C50.8405 33.7965 50.1126 32.7979 49.4609 31.9854Z" fill="black"/>
</svg>
