<svg width="46" height="48" viewBox="0 0 46 48" fill="none" xmlns="http://www.w3.org/2000/svg">
<path d="M22.8235 44C22.3797 44 21.9993 43.8667 21.6823 43.6C21.3653 43.3333 21.1276 42.9833 20.9691 42.55C20.3668 40.6833 19.606 38.9333 18.6867 37.3C17.7991 35.6667 16.547 33.75 14.9304 31.55C13.3137 29.35 11.9982 27.25 10.9838 25.25C10.0011 23.25 9.50977 20.8333 9.50977 18C9.50977 14.1 10.7936 10.8 13.3612 8.1C15.9606 5.36667 19.1147 4 22.8235 4C26.5323 4 29.6706 5.36667 32.2382 8.1C34.8375 10.8 36.1372 14.1 36.1372 18C36.1372 21.0333 35.5825 23.5667 34.473 25.6C33.3952 27.6 32.1431 29.5833 30.7166 31.55C29.0049 33.95 27.7052 35.95 26.8176 37.55C25.9617 39.1167 25.2485 40.7833 24.6779 42.55C24.5194 43.0167 24.2658 43.3833 23.9171 43.65C23.6001 43.8833 23.2356 44 22.8235 44ZM22.8235 23C24.1549 23 25.2802 22.5167 26.1995 21.55C27.1188 20.5833 27.5784 19.4 27.5784 18C27.5784 16.6 27.1188 15.4167 26.1995 14.45C25.2802 13.4833 24.1549 13 22.8235 13C21.4921 13 20.3668 13.4833 19.4475 14.45C18.5282 15.4167 18.0686 16.6 18.0686 18C18.0686 19.4 18.5282 20.5833 19.4475 21.55C20.3668 22.5167 21.4921 23 22.8235 23Z" fill="#1D1B20"/>
</svg>
