<svg width="732" height="729" viewBox="0 0 732 729" fill="none" xmlns="http://www.w3.org/2000/svg">
<g filter="url(#filter0_d_111_132)">
<path d="M366 64L372.192 333.877L475.456 84.4609L383.739 338.35L570.13 143.08L392.891 346.693L637.234 231.941L398.41 357.778L667.707 339.043L399.553 370.109L657.433 449.92L396.164 382.02L607.799 549.598L388.701 391.902L525.509 624.616L378.173 398.421L421.676 664.841L366 400.697L310.324 664.841L353.827 398.421L206.491 624.616L343.299 391.902L124.201 549.598L335.836 382.02L74.5668 449.92L332.447 370.109L64.2925 339.043L333.59 357.778L94.7655 231.941L339.109 346.693L161.87 143.08L348.261 338.35L256.544 84.4609L359.808 333.877L366 64Z" fill="url(#paint0_radial_111_132)"/>
</g>
<defs>
<filter id="filter0_d_111_132" x="0.292969" y="0" width="731.414" height="728.841" filterUnits="userSpaceOnUse" color-interpolation-filters="sRGB">
<feFlood flood-opacity="0" result="BackgroundImageFix"/>
<feColorMatrix in="SourceAlpha" type="matrix" values="0 0 0 0 0 0 0 0 0 0 0 0 0 0 0 0 0 0 127 0" result="hardAlpha"/>
<feOffset/>
<feGaussianBlur stdDeviation="32"/>
<feColorMatrix type="matrix" values="0 0 0 0 0.371242 0 0 0 0 0.533333 0 0 0 0 0.473203 0 0 0 0.153846 0"/>
<feBlend mode="multiply" in2="BackgroundImageFix" result="effect1_dropShadow_111_132"/>
<feBlend mode="normal" in="SourceGraphic" in2="effect1_dropShadow_111_132" result="shape"/>
</filter>
<radialGradient id="paint0_radial_111_132" cx="0" cy="0" r="1" gradientUnits="userSpaceOnUse" gradientTransform="translate(366 367) rotate(90) scale(303)">
<stop stop-color="#FFF1EA"/>
<stop offset="0.333333" stop-color="#FFEF00"/>
<stop offset="0.666667" stop-color="#FE558E"/>
<stop offset="1" stop-color="#FD08AA"/>
</radialGradient>
</defs>
</svg>
