<svg width="48" height="48" viewBox="0 0 48 48" fill="none" xmlns="http://www.w3.org/2000/svg">
<g clip-path="url(#clip0_173_648)">
<path d="M9.88004 32.12C8.64374 32.1154 7.42387 32.4033 6.32004 32.96L0.280036 36.0001C0.195921 36.0386 0.124741 36.1006 0.0750644 36.1787C0.0253882 36.2568 -0.000666889 36.3475 3.57819e-05 36.44V47.2401C-0.00105529 47.3275 0.0228261 47.4135 0.068878 47.4879C0.11493 47.5623 0.181243 47.622 0.260036 47.6601C0.334503 47.7083 0.421323 47.7339 0.510036 47.7339C0.598748 47.7339 0.685568 47.7083 0.760036 47.6601L7.60004 43.3601C7.72311 43.2803 7.86282 43.2299 8.00843 43.2125C8.15404 43.1952 8.30168 43.2115 8.44004 43.26C28.96 50.14 22 50.26 44.66 38.8C44.8141 38.7222 44.9458 38.6065 45.0429 38.4638C45.1401 38.3211 45.1994 38.1561 45.2154 37.9843C45.2314 37.8124 45.2035 37.6393 45.1343 37.4812C45.0652 37.323 44.9571 37.185 44.82 37.0801C44.1723 36.5098 43.3855 36.1206 42.5391 35.9521C41.6927 35.7835 40.8168 35.8414 40 36.12L33.16 38.3801C33.0342 38.4191 32.9178 38.4837 32.818 38.5697C32.7182 38.6557 32.6372 38.7614 32.58 38.8801C32.2517 39.5502 31.7424 40.1152 31.1097 40.511C30.4771 40.9068 29.7463 41.1178 29 41.12H21C20.7348 41.12 20.4805 41.0147 20.2929 40.8272C20.1054 40.6396 20 40.3853 20 40.12C20 39.8548 20.1054 39.6005 20.2929 39.4129C20.4805 39.2254 20.7348 39.12 21 39.12H29C29.5305 39.12 30.0392 38.9093 30.4142 38.5343C30.7893 38.1592 31 37.6505 31 37.12C31 36.5896 30.7893 36.0809 30.4142 35.7058C30.0392 35.3308 29.5305 35.12 29 35.12H22.34C22.1246 35.1147 21.9156 35.0451 21.74 34.92C19.5037 33.2234 16.8043 32.2468 14 32.12H9.88004Z" fill="black"/>
<path d="M35 0C32.4288 0 29.9154 0.762437 27.7776 2.1909C25.6398 3.61935 23.9735 5.64968 22.9896 8.02512C22.0056 10.4006 21.7482 13.0144 22.2498 15.5362C22.7514 18.0579 23.9895 20.3743 25.8076 22.1924C27.6257 24.0105 29.9421 25.2486 32.4638 25.7502C34.9856 26.2518 37.5995 25.9944 39.9749 25.0104C42.3503 24.0265 44.3807 22.3603 45.8091 20.2224C47.2376 18.0846 48 15.5712 48 13C47.9947 9.55381 46.6234 6.25028 44.1866 3.81345C41.7497 1.37663 38.4462 0.00528963 35 0ZM36.5 20.48V21.5C36.5 21.8978 36.342 22.2794 36.0607 22.5607C35.7794 22.842 35.3978 23 35 23C34.6022 23 34.2206 22.842 33.9393 22.5607C33.658 22.2794 33.5 21.8978 33.5 21.5V20.5H32C31.6022 20.5 31.2206 20.342 30.9393 20.0607C30.658 19.7794 30.5 19.3978 30.5 19C30.5 18.6022 30.658 18.2206 30.9393 17.9393C31.2206 17.658 31.6022 17.5 32 17.5H36C36.2764 17.5031 36.5451 17.409 36.7592 17.2342C36.9734 17.0595 37.1194 16.8151 37.1717 16.5437C37.2241 16.2723 37.1795 15.9911 37.0458 15.7492C36.9121 15.5073 36.6977 15.32 36.44 15.22L32.32 13.56C31.4714 13.2017 30.765 12.5731 30.3105 11.7719C29.8559 10.9708 29.6787 10.0419 29.8065 9.1297C29.9342 8.21748 30.3596 7.37299 31.0167 6.72746C31.6738 6.08193 32.5257 5.67152 33.44 5.56V4.5C33.44 4.10218 33.598 3.72064 33.8793 3.43934C34.1607 3.15804 34.5422 3 34.94 3C35.3378 3 35.7194 3.15804 36.0007 3.43934C36.282 3.72064 36.44 4.10218 36.44 4.5V5.5H38C38.3978 5.5 38.7794 5.65804 39.0607 5.93934C39.342 6.22064 39.5 6.60218 39.5 7C39.5 7.39782 39.342 7.77936 39.0607 8.06066C38.7794 8.34196 38.3978 8.5 38 8.5H34C33.687 8.5 33.3869 8.62432 33.1656 8.84561C32.9443 9.06691 32.82 9.36704 32.82 9.68C32.8162 9.91699 32.8851 10.1495 33.0174 10.3461C33.1497 10.5428 33.3391 10.6942 33.56 10.78L37.68 12.44C38.5286 12.7983 39.235 13.4269 39.6895 14.2281C40.1441 15.0292 40.3213 15.9581 40.1936 16.8703C40.0658 17.7825 39.6404 18.627 38.9833 19.2725C38.3262 19.9181 37.4743 20.3285 36.56 20.44L36.5 20.48Z" fill="black"/>
</g>
<defs>
<clipPath id="clip0_173_648">
<rect width="48" height="48" fill="white"/>
</clipPath>
</defs>
</svg>
