<svg width="698" height="649" viewBox="0 0 698 649" fill="none" xmlns="http://www.w3.org/2000/svg">
<path d="M205.57 183.483V285.144H210.478V183.483H205.57ZM173.93 180.773H237.504C241.361 180.773 244.901 180.676 248.124 180.48C251.347 180.236 255.497 179.87 260.575 179.382L262.26 203.112H261.381L255.961 185.827C251.518 185.046 246.879 184.655 242.045 184.655C237.895 184.655 234.11 184.875 230.692 185.314C227.274 185.754 223.588 186.486 219.633 187.512C219.242 192.053 218.949 196.447 218.754 200.695C218.559 204.895 218.412 208.801 218.314 212.414C218.217 215.979 218.168 218.42 218.168 219.738V244.055C218.168 250.451 218.388 257.629 218.827 265.588C219.267 273.498 219.804 279.821 220.438 284.558L238.529 287.268V288H183.231V287.268L201.029 284.558C202.543 273.767 203.3 260.705 203.3 245.373V218.859C203.3 213.391 203.178 207.995 202.934 202.673C202.689 197.351 202.274 192.297 201.688 187.512C198.856 186.73 195.561 186.12 191.801 185.681C188.041 185.192 184.477 184.899 181.107 184.802C175.785 184.802 170.536 185.241 165.36 186.12L160.087 203.552H159.062L160.673 179.528C162.138 179.626 164.262 179.87 167.045 180.261C169.828 180.603 172.123 180.773 173.93 180.773ZM369.926 183.483V285.144H375.053V183.483H369.926ZM285.185 183.63V285.144H290.238V183.63H285.185ZM265.995 180.773H319.242V181.506L299.833 184.069C299.296 186.755 298.832 191.491 298.441 198.278C298.1 205.065 297.929 210.827 297.929 215.563C297.929 219.665 298.075 224.719 298.368 230.725C305.497 232.092 316.19 232.775 330.448 232.775C337.528 232.775 344.169 232.629 350.37 232.336C356.571 232.043 362.235 231.506 367.362 230.725C367.753 225.988 367.948 220.324 367.948 213.732C367.948 209.826 367.826 205.92 367.582 202.014C367.387 198.059 367.167 194.885 366.923 192.492C366.679 190.1 366.337 187.243 365.897 183.923L346.488 181.506V180.773H399.735V181.506L384.794 183.923C384.013 187.536 383.427 193.64 383.036 202.233C382.694 210.778 382.523 219.079 382.523 227.136V251.672C382.523 266.369 383.28 277.38 384.794 284.704L399.882 287.268V288H346.488V287.268L365.531 284.704C366.898 276.403 367.704 267.297 367.948 257.385C368.046 254.846 368.046 251.77 367.948 248.156C367.851 244.494 367.655 240.686 367.362 236.73H298.222C298.026 240.393 297.929 246.13 297.929 253.942C297.929 258.581 298.075 264.001 298.368 270.202C298.71 276.354 299.271 281.188 300.053 284.704L319.242 287.268V288H265.849V287.268L280.644 284.704C280.985 282.751 281.352 279.26 281.742 274.23C282.133 269.152 282.45 263.464 282.694 257.165C282.938 250.817 283.061 245.495 283.061 241.198V214.172C283.061 213.391 282.987 210.827 282.841 206.481C282.694 202.087 282.426 197.741 282.035 193.444C281.693 189.099 281.327 185.925 280.937 183.923L265.995 181.506V180.773ZM423.686 183.63V285.144H428.739V183.63H423.686ZM401.42 181.506V180.773H479.423L481.254 203.552H480.082L474.809 185.681C470.658 185.388 465.995 185.241 460.819 185.241C451.396 185.241 443.803 185.9 438.041 187.219C437.064 195.129 436.576 204.162 436.576 214.318C436.576 220.666 436.771 225.817 437.162 229.772C444.877 230.212 449.784 230.432 451.884 230.432C457.401 230.432 463.09 230.114 468.949 229.479L472.245 217.028H473.49V248.229H472.245L468.803 235.046C464.555 234.558 459.867 234.313 454.74 234.313C448.295 234.313 442.436 234.606 437.162 235.192C436.527 240.856 436.332 246.398 436.576 251.818C436.674 258.752 436.796 264.489 436.942 269.03C437.089 273.522 437.357 277.404 437.748 280.676C443.705 282.482 451.518 283.386 461.186 283.386C466.752 283.386 471.439 283.166 475.248 282.727L481.107 265.075H482.133L480.521 288H401.64V287.268L419.145 284.704C419.535 282.702 419.877 279.65 420.17 275.549C420.512 271.447 420.805 266.857 421.049 261.779C421.293 256.652 421.464 252.38 421.562 248.962C421.659 245.495 421.708 242.468 421.708 239.88V221.423C421.708 219.079 421.635 215.759 421.488 211.462C421.342 207.116 421.122 202.624 420.829 197.985C420.536 193.347 420.121 188.708 419.584 184.069L401.42 181.506ZM55.9365 362.483V464.144H61.0635V362.483H55.9365ZM33.7441 360.506V359.773H89.1152V360.506L70.9512 363.069C70.3164 367.806 69.7793 374.202 69.3398 382.259C68.9004 390.267 68.6807 397.273 68.6807 403.279V434.773C68.6807 442.342 69.0713 450.228 69.8525 458.431C78.2021 461.067 86.8203 462.386 95.707 462.386C100.004 462.386 103.959 462.142 107.572 461.653C111.186 461.165 113.725 460.701 115.189 460.262L122.807 440.267H123.905L120.463 467H33.5977V466.268L51.1025 463.704C51.6885 461.36 52.1768 457.186 52.5674 451.18C53.0068 445.174 53.3486 438.973 53.5928 432.576C53.8369 426.18 53.959 421.663 53.959 419.026V400.569C53.959 396.517 53.8613 391.878 53.666 386.653C53.4707 381.38 53.2266 376.766 52.9336 372.811C52.6895 368.855 52.3477 365.608 51.9082 363.069L33.7441 360.506ZM182.206 373.104L220.219 464.144H225.126L184.623 366.951L182.206 373.104ZM181.034 379.256C179.716 381.844 177.958 385.628 175.761 390.608C173.612 395.589 171.659 400.252 169.901 404.598C168.144 408.943 166.312 413.582 164.408 418.514C162.504 423.396 161.234 426.619 160.6 428.182C163.48 428.572 166.825 428.841 170.634 428.987C174.491 429.134 178.153 429.207 181.62 429.207C190.165 429.207 197.172 428.865 202.641 428.182C200.785 422.664 197.636 414.827 193.192 404.671C188.749 394.466 184.696 385.994 181.034 379.256ZM188.798 358.675L220.512 434.334C224.613 444.197 229.398 453.987 234.867 463.704L247.025 466.268V467H195.316V466.268L215.238 463.704C214.506 458.87 213.139 453.621 211.137 447.957C209.184 442.244 207.011 437.288 204.618 433.089H158.695C156.742 438.021 155.155 442.073 153.935 445.247C152.763 448.421 151.615 451.717 150.492 455.135C149.418 458.553 148.71 461.409 148.368 463.704L167.558 466.268V467H126.615V466.268L140.092 463.704C143.363 458.04 146.366 451.79 149.101 444.954L183.012 358.675H188.798ZM286.649 362.483V464.144H291.557V362.483H286.649ZM255.009 359.773H318.583C322.44 359.773 325.98 359.676 329.203 359.48C332.426 359.236 336.576 358.87 341.654 358.382L343.339 382.112H342.46L337.04 364.827C332.597 364.046 327.958 363.655 323.124 363.655C318.974 363.655 315.189 363.875 311.771 364.314C308.354 364.754 304.667 365.486 300.712 366.512C300.321 371.053 300.028 375.447 299.833 379.695C299.638 383.895 299.491 387.801 299.394 391.414C299.296 394.979 299.247 397.42 299.247 398.738V423.055C299.247 429.451 299.467 436.629 299.906 444.588C300.346 452.498 300.883 458.821 301.518 463.558L319.608 466.268V467H264.311V466.268L282.108 463.558C283.622 452.767 284.379 439.705 284.379 424.373V397.859C284.379 392.391 284.257 386.995 284.013 381.673C283.769 376.351 283.354 371.297 282.768 366.512C279.936 365.73 276.64 365.12 272.88 364.681C269.12 364.192 265.556 363.899 262.187 363.802C256.864 363.802 251.615 364.241 246.439 365.12L241.166 382.552H240.141L241.752 358.528C243.217 358.626 245.341 358.87 248.124 359.261C250.907 359.603 253.202 359.773 255.009 359.773ZM368.827 362.63V464.144H373.881V362.63H368.827ZM346.562 360.506V359.773H424.564L426.396 382.552H425.224L419.95 364.681C415.8 364.388 411.137 364.241 405.961 364.241C396.537 364.241 388.944 364.9 383.183 366.219C382.206 374.129 381.718 383.162 381.718 393.318C381.718 399.666 381.913 404.817 382.304 408.772C390.019 409.212 394.926 409.432 397.025 409.432C402.543 409.432 408.231 409.114 414.091 408.479L417.387 396.028H418.632V427.229H417.387L413.944 414.046C409.696 413.558 405.009 413.313 399.882 413.313C393.437 413.313 387.577 413.606 382.304 414.192C381.669 419.856 381.474 425.398 381.718 430.818C381.815 437.752 381.938 443.489 382.084 448.03C382.23 452.522 382.499 456.404 382.89 459.676C388.847 461.482 396.659 462.386 406.327 462.386C411.894 462.386 416.581 462.166 420.39 461.727L426.249 444.075H427.274L425.663 467H346.781V466.268L364.286 463.704C364.677 461.702 365.019 458.65 365.312 454.549C365.653 450.447 365.946 445.857 366.19 440.779C366.435 435.652 366.605 431.38 366.703 427.962C366.801 424.495 366.85 421.468 366.85 418.88V400.423C366.85 398.079 366.776 394.759 366.63 390.462C366.483 386.116 366.264 381.624 365.971 376.985C365.678 372.347 365.263 367.708 364.726 363.069L346.562 360.506ZM472.904 359.92H470.561C465.189 359.92 460.233 360.994 455.692 363.143C451.151 365.291 447.562 368.343 444.926 372.298C442.289 376.253 440.971 380.721 440.971 385.701C440.971 391.902 443.681 397.713 449.101 403.133C451.493 405.428 453.715 407.356 455.766 408.919C457.865 410.481 461.015 412.703 465.214 415.584C469.413 418.416 472.758 420.76 475.248 422.615C477.787 424.422 479.862 426.155 481.474 427.815C485.868 432.21 488.065 437.117 488.065 442.537C488.065 446.248 487.04 449.837 484.989 453.304C482.987 456.722 480.058 459.529 476.2 461.727C472.392 463.875 467.899 464.974 462.724 465.022V465.828C468.681 466.023 473.979 464.974 478.617 462.679C483.305 460.384 486.869 457.356 489.311 453.597C491.801 449.837 493.046 445.955 493.046 441.951C493.046 438.484 492.484 435.335 491.361 432.503C490.238 429.671 488.188 426.766 485.209 423.787C483.5 422.078 480.424 419.71 475.98 416.683C471.537 413.606 467.045 410.53 462.504 407.454C457.963 404.329 454.643 401.766 452.543 399.764C447.416 394.686 444.853 389.095 444.853 382.991C444.853 377.62 447.172 372.615 451.811 367.977C456.498 363.338 463.529 360.896 472.904 360.652V359.92ZM437.089 441.365L442.655 459.383C445.438 460.652 448.686 461.678 452.396 462.459C456.156 463.24 459.403 463.606 462.138 463.558C465.8 463.558 469.145 462.923 472.172 461.653C475.248 460.384 477.738 458.772 479.643 456.819C481.596 454.866 483.085 452.669 484.11 450.228C485.136 447.737 485.648 445.32 485.648 442.977C485.648 438.143 484.013 434.065 480.741 430.745C477.47 427.425 471.977 423.177 464.262 418.001C456.596 412.825 451.029 408.504 447.562 405.037C444.584 401.961 442.362 398.885 440.897 395.809C439.433 392.684 438.7 389.217 438.7 385.408C438.7 381.209 439.848 377.034 442.143 372.884C444.438 368.733 447.978 365.291 452.763 362.557C457.548 359.773 463.432 358.382 470.414 358.382C473.588 358.382 476.957 358.553 480.521 358.895C484.086 359.188 486.552 359.334 487.919 359.334C489.091 359.285 490.189 359.261 491.215 359.261C492.24 359.212 493.046 359.163 493.632 359.114C494.267 359.017 494.926 358.919 495.609 358.821L496.049 383.87H495.097L490.482 366.951C483.695 363.973 477.787 362.483 472.758 362.483C468.559 362.483 464.774 363.289 461.405 364.9C458.085 366.463 455.497 368.636 453.642 371.419C451.786 374.153 450.858 377.254 450.858 380.721C450.858 384.334 452.104 387.654 454.594 390.682C457.084 393.66 460.478 396.59 464.774 399.471C469.12 402.352 473.759 405.403 478.69 408.626C483.671 411.849 487.65 414.949 490.629 417.928C496.439 423.738 499.345 430.452 499.345 438.069C499.345 442.366 498.222 446.81 495.976 451.399C493.729 455.94 489.945 459.798 484.623 462.972C479.301 466.146 472.416 467.732 463.969 467.732C460.99 467.732 457.353 467.562 453.056 467.22C448.808 466.878 445.683 466.707 443.681 466.707C442.753 466.707 442.021 466.731 441.483 466.78C440.995 466.829 440.214 466.902 439.14 467C438.065 467.098 437.431 467.146 437.235 467.146L436.063 441.365H437.089ZM552.519 362.483V464.144H557.426V362.483H552.519ZM520.878 359.773H584.452C588.31 359.773 591.85 359.676 595.072 359.48C598.295 359.236 602.445 358.87 607.523 358.382L609.208 382.112H608.329L602.909 364.827C598.466 364.046 593.827 363.655 588.993 363.655C584.843 363.655 581.059 363.875 577.641 364.314C574.223 364.754 570.536 365.486 566.581 366.512C566.19 371.053 565.897 375.447 565.702 379.695C565.507 383.895 565.36 387.801 565.263 391.414C565.165 394.979 565.116 397.42 565.116 398.738V423.055C565.116 429.451 565.336 436.629 565.775 444.588C566.215 452.498 566.752 458.821 567.387 463.558L585.478 466.268V467H530.18V466.268L547.978 463.558C549.491 452.767 550.248 439.705 550.248 424.373V397.859C550.248 392.391 550.126 386.995 549.882 381.673C549.638 376.351 549.223 371.297 548.637 366.512C545.805 365.73 542.509 365.12 538.749 364.681C534.989 364.192 531.425 363.899 528.056 363.802C522.733 363.802 517.484 364.241 512.309 365.12L507.035 382.552H506.01L507.621 358.528C509.086 358.626 511.21 358.87 513.993 359.261C516.776 359.603 519.071 359.773 520.878 359.773ZM93.0703 539.506V538.773H130.058C132.499 542.094 135.648 546.098 139.506 550.785C143.412 555.473 146.879 559.501 149.906 562.87L182.719 599.345C187.064 604.081 190.434 607.743 192.826 610.331C195.268 612.919 198.417 616.068 202.274 619.779C202.567 616.41 202.763 613.261 202.86 610.331C202.958 607.401 203.007 604.643 203.007 602.055V570.414C203.007 559.037 202.445 549.638 201.322 542.216L183.524 539.506V538.773H227.104V539.506L209.306 542.362C208.378 549.198 207.914 557.938 207.914 568.583V648.856H207.182C199.711 639.384 192.313 630.521 184.989 622.27L140.165 572.318C133.524 565.238 127.86 559.599 123.173 555.399C122.489 562.04 122.147 568.241 122.147 574.003V620.365C122.147 626.566 122.636 633.964 123.612 642.558L142.216 645.268V646H97.6846V645.268L115.702 642.704C116.288 639.188 116.703 634.184 116.947 627.689C117.191 621.195 117.313 615.409 117.313 610.331V574.442C117.313 570.194 117.24 565.995 117.094 561.845C116.947 557.646 116.679 553.495 116.288 549.394L106.547 542.216L93.0703 539.506ZM114.97 541.483L203.446 639.848V632.963L121.122 541.483H114.97ZM250.907 541.63V643.144H255.961V541.63H250.907ZM228.642 539.506V538.773H306.645L308.476 561.552H307.304L302.03 543.681C297.88 543.388 293.217 543.241 288.041 543.241C278.617 543.241 271.024 543.9 265.263 545.219C264.286 553.129 263.798 562.162 263.798 572.318C263.798 578.666 263.993 583.817 264.384 587.772C272.099 588.212 277.006 588.432 279.105 588.432C284.623 588.432 290.312 588.114 296.171 587.479L299.467 575.028H300.712V606.229H299.467L296.024 593.046C291.776 592.558 287.089 592.313 281.962 592.313C275.517 592.313 269.657 592.606 264.384 593.192C263.749 598.856 263.554 604.398 263.798 609.818C263.896 616.752 264.018 622.489 264.164 627.03C264.311 631.522 264.579 635.404 264.97 638.676C270.927 640.482 278.739 641.386 288.407 641.386C293.974 641.386 298.661 641.166 302.47 640.727L308.329 623.075H309.354L307.743 646H228.861V645.268L246.366 642.704C246.757 640.702 247.099 637.65 247.392 633.549C247.733 629.447 248.026 624.857 248.271 619.779C248.515 614.652 248.686 610.38 248.783 606.962C248.881 603.495 248.93 600.468 248.93 597.88V579.423C248.93 577.079 248.856 573.759 248.71 569.462C248.563 565.116 248.344 560.624 248.051 555.985C247.758 551.347 247.343 546.708 246.806 542.069L228.642 539.506ZM332.353 541.63L359.672 637.431H359.965L362.382 630.399L337.187 541.63H332.353ZM398.344 553.422L396.146 559.428L431.669 638.017L433.793 631.425L398.344 553.422ZM369.12 539.506L348.246 542.216C348.246 545.731 348.832 550.785 350.004 557.377C351.225 563.969 352.592 569.901 354.105 575.175L361.137 599.345C362.699 604.911 364.652 610.722 366.996 616.776C371.488 607.255 375.053 599.198 377.689 592.606L390.287 561.259C394.73 549.784 397.514 541.923 398.637 537.675H400.028C400.614 539.042 401.786 541.972 403.544 546.464C405.302 550.956 406.913 554.936 408.378 558.402L426.103 597.221C428.837 603.52 432.279 610.624 436.43 618.534C437.992 614.628 440.409 607.328 443.681 596.635L452.03 567.118C453.202 563.212 454.228 559.013 455.106 554.521C455.985 550.028 456.62 545.829 457.011 541.923L435.697 539.506V538.773H478.764V539.506L465.727 542.069C464.115 545.829 462.553 549.882 461.039 554.228C459.525 558.573 458.036 563.358 456.571 568.583L443.534 613.627C441.386 621.146 439.433 628.129 437.675 634.574C435.966 640.971 434.818 645.731 434.232 648.856H432.987C432.499 647.44 431.791 645.487 430.863 642.997C429.936 640.507 429.203 638.554 428.666 637.138C428.129 635.722 427.421 633.988 426.542 631.938C425.663 629.838 424.76 627.836 423.832 625.932L403.324 580.155C399.125 571.513 396.415 566.068 395.194 563.822C394.169 565.385 392.68 568.437 390.727 572.978C388.822 577.519 387.724 580.253 387.431 581.181L370.292 623.515C369.12 626.396 368.07 629.081 367.143 631.571C366.264 634.013 365.312 636.625 364.286 639.408C363.31 642.143 362.211 645.292 360.99 648.856H359.818C358.939 643.925 356.693 634.916 353.08 621.83L339.237 573.124C336.015 561.796 332.426 551.444 328.471 542.069L315.727 539.506V538.773H369.12V539.506ZM520.658 538.92H518.314C512.943 538.92 507.987 539.994 503.446 542.143C498.905 544.291 495.316 547.343 492.68 551.298C490.043 555.253 488.725 559.721 488.725 564.701C488.725 570.902 491.435 576.713 496.854 582.133C499.247 584.428 501.469 586.356 503.52 587.919C505.619 589.481 508.769 591.703 512.968 594.584C517.167 597.416 520.512 599.76 523.002 601.615C525.541 603.422 527.616 605.155 529.228 606.815C533.622 611.21 535.819 616.117 535.819 621.537C535.819 625.248 534.794 628.837 532.743 632.304C530.741 635.722 527.812 638.529 523.954 640.727C520.146 642.875 515.653 643.974 510.478 644.022V644.828C516.435 645.023 521.732 643.974 526.371 641.679C531.059 639.384 534.623 636.356 537.064 632.597C539.555 628.837 540.8 624.955 540.8 620.951C540.8 617.484 540.238 614.335 539.115 611.503C537.992 608.671 535.941 605.766 532.963 602.787C531.254 601.078 528.178 598.71 523.734 595.683C519.291 592.606 514.799 589.53 510.258 586.454C505.717 583.329 502.396 580.766 500.297 578.764C495.17 573.686 492.606 568.095 492.606 561.991C492.606 556.62 494.926 551.615 499.564 546.977C504.252 542.338 511.283 539.896 520.658 539.652V538.92ZM484.843 620.365L490.409 638.383C493.192 639.652 496.439 640.678 500.15 641.459C503.91 642.24 507.157 642.606 509.892 642.558C513.554 642.558 516.898 641.923 519.926 640.653C523.002 639.384 525.492 637.772 527.396 635.819C529.35 633.866 530.839 631.669 531.864 629.228C532.89 626.737 533.402 624.32 533.402 621.977C533.402 617.143 531.767 613.065 528.495 609.745C525.224 606.425 519.73 602.177 512.016 597.001C504.35 591.825 498.783 587.504 495.316 584.037C492.338 580.961 490.116 577.885 488.651 574.809C487.187 571.684 486.454 568.217 486.454 564.408C486.454 560.209 487.602 556.034 489.896 551.884C492.191 547.733 495.731 544.291 500.517 541.557C505.302 538.773 511.186 537.382 518.168 537.382C521.342 537.382 524.711 537.553 528.275 537.895C531.84 538.188 534.306 538.334 535.673 538.334C536.845 538.285 537.943 538.261 538.969 538.261C539.994 538.212 540.8 538.163 541.386 538.114C542.021 538.017 542.68 537.919 543.363 537.821L543.803 562.87H542.851L538.236 545.951C531.449 542.973 525.541 541.483 520.512 541.483C516.312 541.483 512.528 542.289 509.159 543.9C505.839 545.463 503.251 547.636 501.396 550.419C499.54 553.153 498.612 556.254 498.612 559.721C498.612 563.334 499.857 566.654 502.348 569.682C504.838 572.66 508.231 575.59 512.528 578.471C516.874 581.352 521.513 584.403 526.444 587.626C531.425 590.849 535.404 593.949 538.383 596.928C544.193 602.738 547.099 609.452 547.099 617.069C547.099 621.366 545.976 625.81 543.729 630.399C541.483 634.94 537.699 638.798 532.377 641.972C527.055 645.146 520.17 646.732 511.723 646.732C508.744 646.732 505.106 646.562 500.81 646.22C496.562 645.878 493.437 645.707 491.435 645.707C490.507 645.707 489.774 645.731 489.237 645.78C488.749 645.829 487.968 645.902 486.894 646C485.819 646.098 485.185 646.146 484.989 646.146L483.817 620.365H484.843Z" fill="white"/>
<path d="M22.5381 4.62988V106.29H27.5918V4.62988H22.5381ZM0.345703 1.77344H78.6416L80.1064 24.9912H79.0811L73.8076 6.53418C68.3877 6.24121 63.8467 6.09473 60.1846 6.09473C50.9561 6.09473 43.1924 6.80273 36.8936 8.21875C36.5029 11.5879 36.1367 16.2266 35.7949 22.1348C35.4531 28.043 35.2822 32.5596 35.2822 35.6846C35.2822 39.1025 35.4775 44.083 35.8682 50.626C40.4092 51.1631 45.707 51.4316 51.7617 51.4316C58.1582 51.4316 63.4561 51.1631 67.6553 50.626L71.2441 38.0283H72.1963V69.376H71.2441L67.6553 56.0459C64.8721 55.7529 62.1865 55.5576 59.5986 55.46C57.0596 55.3623 54.3984 55.3135 51.6152 55.3135C48.9785 55.3135 43.6807 55.5576 35.7217 56.0459C35.4287 61.1729 35.2822 66.4219 35.2822 71.793C35.2822 75.5527 35.4775 81.1436 35.8682 88.5654C36.2588 95.9385 36.7471 101.651 37.333 105.704L55.6436 108.268V109H0.345703V108.268L17.9971 105.704C18.7295 100.577 19.3154 93.668 19.7549 84.9766C20.1943 76.2852 20.4141 68.9854 20.4141 63.0771V42.7158C20.4141 40.1768 20.3164 36.4414 20.1211 31.5098C19.9746 26.5293 19.7549 21.6953 19.4619 17.0078C19.2178 12.2715 18.8271 8.34082 18.29 5.21582L0.345703 2.50586V1.77344ZM150.053 0.235352C160.453 0.235352 169.462 1.96875 177.079 5.43555C184.696 8.90234 190.922 13.4434 195.756 19.0586C200.639 24.6738 204.203 30.6553 206.449 37.0029C208.744 43.3018 209.892 49.3564 209.892 55.167C209.892 61.8076 208.598 68.3262 206.01 74.7227C203.471 81.1191 199.687 86.9785 194.657 92.3008C189.677 97.5742 183.476 101.798 176.054 104.972C168.681 108.146 160.453 109.732 151.371 109.732C138.236 109.732 127.104 106.9 117.973 101.236C108.842 95.5234 102.104 88.4678 97.7578 80.0693C93.4121 71.6709 91.2393 63.4678 91.2393 55.46C91.2393 48.3799 92.6064 41.5195 95.3408 34.8789C98.124 28.2383 102.128 22.3057 107.353 17.0811C112.626 11.8076 118.925 7.68164 126.249 4.70312C133.573 1.72461 141.508 0.235352 150.053 0.235352ZM150.492 5.3623C142.924 5.3623 135.917 7.33984 129.472 11.2949C123.075 15.25 117.973 20.9629 114.164 28.4336C110.404 35.9043 108.524 44.7178 108.524 54.874C108.524 65.8115 110.575 75.0645 114.677 82.6328C118.827 90.1523 124.125 95.7432 130.57 99.4053C137.064 103.019 143.754 104.825 150.639 104.825C156.254 104.825 161.576 103.751 166.605 101.603C171.635 99.4541 176.127 96.3291 180.082 92.2275C184.037 88.0771 187.113 82.999 189.311 76.9932C191.557 70.9385 192.68 64.2002 192.68 56.7783C192.68 46.6221 191.508 38.5166 189.164 32.4619C186.82 26.4072 183.378 21.1094 178.837 16.5684C174.979 12.7109 170.585 9.87891 165.653 8.07227C160.771 6.26562 155.717 5.3623 150.492 5.3623ZM154.228 2.35938V3.0918C158.964 3.43359 163.725 4.55664 168.51 6.46094C173.295 8.31641 177.763 11.2461 181.913 15.25C186.112 19.2051 189.481 24.5518 192.021 31.29C194.56 38.0283 195.829 46.1338 195.829 55.6064C195.829 61.8076 195.072 67.7402 193.559 73.4043C192.094 79.0684 189.701 84.293 186.381 89.0781C183.109 93.8633 178.812 97.8184 173.49 100.943C168.168 104.068 161.796 105.997 154.374 106.729V107.535C160.624 107.242 166.557 105.899 172.172 103.507C177.787 101.114 182.768 97.6963 187.113 93.2529C191.508 88.7607 194.975 83.292 197.514 76.8467C200.053 70.4014 201.322 63.2236 201.322 55.3135C201.322 46.6709 200.004 39.0537 197.367 32.4619C194.73 25.8213 191.142 20.3037 186.601 15.9092C182.06 11.5146 177.006 8.19434 171.439 5.94824C165.922 3.70215 160.185 2.50586 154.228 2.35938ZM147.05 3.0918V2.35938C140.214 2.4082 133.549 3.87305 127.055 6.75391C120.561 9.63477 114.848 13.541 109.916 18.4727C104.984 23.4043 101.127 29.0195 98.3438 35.3184C95.6094 41.6172 94.2422 48.2334 94.2422 55.167C94.2422 63.6631 96.5371 71.9395 101.127 79.9961C105.766 88.0039 112.162 94.5225 120.316 99.5518C128.471 104.581 137.431 107.242 147.196 107.535V106.729C137.724 105.899 129.35 102.945 122.074 97.8672C114.799 92.7891 109.257 86.4902 105.448 78.9707C101.688 71.4512 99.8086 63.6631 99.8086 55.6064C99.8086 48.9658 100.907 42.5938 103.104 36.4902C105.302 30.3867 108.476 24.9424 112.626 20.1572C116.776 15.3721 121.781 11.4902 127.641 8.51172C133.549 5.5332 140.019 3.72656 147.05 3.0918ZM239.335 4.4834V106.144H244.462V4.4834H239.335ZM217.143 2.50586V1.77344H272.514V2.50586L254.35 5.06934C253.715 9.80566 253.178 16.2021 252.738 24.2588C252.299 32.2666 252.079 39.2734 252.079 45.2793V76.7734C252.079 84.3418 252.47 92.2275 253.251 100.431C261.601 103.067 270.219 104.386 279.105 104.386C283.402 104.386 287.357 104.142 290.971 103.653C294.584 103.165 297.123 102.701 298.588 102.262L306.205 82.2666H307.304L303.861 109H216.996V108.268L234.501 105.704C235.087 103.36 235.575 99.1855 235.966 93.1797C236.405 87.1738 236.747 80.9727 236.991 74.5762C237.235 68.1797 237.357 63.6631 237.357 61.0264V42.5693C237.357 38.5166 237.26 33.8779 237.064 28.6533C236.869 23.3799 236.625 18.7656 236.332 14.8105C236.088 10.8555 235.746 7.6084 235.307 5.06934L217.143 2.50586ZM333.085 4.4834V106.144H338.212V4.4834H333.085ZM310.893 2.50586V1.77344H366.264V2.50586L348.1 5.06934C347.465 9.80566 346.928 16.2021 346.488 24.2588C346.049 32.2666 345.829 39.2734 345.829 45.2793V76.7734C345.829 84.3418 346.22 92.2275 347.001 100.431C355.351 103.067 363.969 104.386 372.855 104.386C377.152 104.386 381.107 104.142 384.721 103.653C388.334 103.165 390.873 102.701 392.338 102.262L399.955 82.2666H401.054L397.611 109H310.746V108.268L328.251 105.704C328.837 103.36 329.325 99.1855 329.716 93.1797C330.155 87.1738 330.497 80.9727 330.741 74.5762C330.985 68.1797 331.107 63.6631 331.107 61.0264V42.5693C331.107 38.5166 331.01 33.8779 330.814 28.6533C330.619 23.3799 330.375 18.7656 330.082 14.8105C329.838 10.8555 329.496 7.6084 329.057 5.06934L310.893 2.50586ZM467.338 0.235352C477.738 0.235352 486.747 1.96875 494.364 5.43555C501.981 8.90234 508.207 13.4434 513.041 19.0586C517.924 24.6738 521.488 30.6553 523.734 37.0029C526.029 43.3018 527.177 49.3564 527.177 55.167C527.177 61.8076 525.883 68.3262 523.295 74.7227C520.756 81.1191 516.972 86.9785 511.942 92.3008C506.962 97.5742 500.761 101.798 493.339 104.972C485.966 108.146 477.738 109.732 468.656 109.732C455.521 109.732 444.389 106.9 435.258 101.236C426.127 95.5234 419.389 88.4678 415.043 80.0693C410.697 71.6709 408.524 63.4678 408.524 55.46C408.524 48.3799 409.892 41.5195 412.626 34.8789C415.409 28.2383 419.413 22.3057 424.638 17.0811C429.911 11.8076 436.21 7.68164 443.534 4.70312C450.858 1.72461 458.793 0.235352 467.338 0.235352ZM467.777 5.3623C460.209 5.3623 453.202 7.33984 446.757 11.2949C440.36 15.25 435.258 20.9629 431.449 28.4336C427.689 35.9043 425.81 44.7178 425.81 54.874C425.81 65.8115 427.86 75.0645 431.962 82.6328C436.112 90.1523 441.41 95.7432 447.855 99.4053C454.35 103.019 461.039 104.825 467.924 104.825C473.539 104.825 478.861 103.751 483.891 101.603C488.92 99.4541 493.412 96.3291 497.367 92.2275C501.322 88.0771 504.398 82.999 506.596 76.9932C508.842 70.9385 509.965 64.2002 509.965 56.7783C509.965 46.6221 508.793 38.5166 506.449 32.4619C504.105 26.4072 500.663 21.1094 496.122 16.5684C492.265 12.7109 487.87 9.87891 482.938 8.07227C478.056 6.26562 473.002 5.3623 467.777 5.3623ZM471.513 2.35938V3.0918C476.249 3.43359 481.01 4.55664 485.795 6.46094C490.58 8.31641 495.048 11.2461 499.198 15.25C503.397 19.2051 506.767 24.5518 509.306 31.29C511.845 38.0283 513.114 46.1338 513.114 55.6064C513.114 61.8076 512.357 67.7402 510.844 73.4043C509.379 79.0684 506.986 84.293 503.666 89.0781C500.395 93.8633 496.098 97.8184 490.775 100.943C485.453 104.068 479.081 105.997 471.659 106.729V107.535C477.909 107.242 483.842 105.899 489.457 103.507C495.072 101.114 500.053 97.6963 504.398 93.2529C508.793 88.7607 512.26 83.292 514.799 76.8467C517.338 70.4014 518.607 63.2236 518.607 55.3135C518.607 46.6709 517.289 39.0537 514.652 32.4619C512.016 25.8213 508.427 20.3037 503.886 15.9092C499.345 11.5146 494.291 8.19434 488.725 5.94824C483.207 3.70215 477.47 2.50586 471.513 2.35938ZM464.335 3.0918V2.35938C457.499 2.4082 450.834 3.87305 444.34 6.75391C437.846 9.63477 432.133 13.541 427.201 18.4727C422.27 23.4043 418.412 29.0195 415.629 35.3184C412.895 41.6172 411.527 48.2334 411.527 55.167C411.527 63.6631 413.822 71.9395 418.412 79.9961C423.051 88.0039 429.447 94.5225 437.602 99.5518C445.756 104.581 454.716 107.242 464.481 107.535V106.729C455.009 105.899 446.635 102.945 439.359 97.8672C432.084 92.7891 426.542 86.4902 422.733 78.9707C418.974 71.4512 417.094 63.6631 417.094 55.6064C417.094 48.9658 418.192 42.5938 420.39 36.4902C422.587 30.3867 425.761 24.9424 429.911 20.1572C434.062 15.3721 439.066 11.4902 444.926 8.51172C450.834 5.5332 457.304 3.72656 464.335 3.0918ZM550.907 4.62988L578.227 100.431H578.52L580.937 93.3994L555.741 4.62988H550.907ZM616.898 16.4219L614.701 22.4277L650.224 101.017L652.348 94.4248L616.898 16.4219ZM587.675 2.50586L566.801 5.21582C566.801 8.73145 567.387 13.7852 568.559 20.377C569.779 26.9688 571.146 32.9014 572.66 38.1748L579.691 62.3447C581.254 67.9111 583.207 73.7217 585.551 79.7764C590.043 70.2549 593.607 62.1982 596.244 55.6064L608.842 24.2588C613.285 12.7842 616.068 4.92285 617.191 0.674805H618.583C619.169 2.04199 620.341 4.97168 622.099 9.46387C623.856 13.9561 625.468 17.9355 626.933 21.4023L644.657 60.2207C647.392 66.5195 650.834 73.624 654.984 81.5342C656.547 77.6279 658.964 70.3281 662.235 59.6348L670.585 30.1182C671.757 26.2119 672.782 22.0127 673.661 17.5205C674.54 13.0283 675.175 8.8291 675.565 4.92285L654.252 2.50586V1.77344H697.318V2.50586L684.281 5.06934C682.67 8.8291 681.107 12.8818 679.594 17.2275C678.08 21.5732 676.591 26.3584 675.126 31.583L662.089 76.627C659.94 84.1465 657.987 91.1289 656.229 97.5742C654.521 103.971 653.373 108.731 652.787 111.856H651.542C651.054 110.44 650.346 108.487 649.418 105.997C648.49 103.507 647.758 101.554 647.221 100.138C646.684 98.7217 645.976 96.9883 645.097 94.9375C644.218 92.8379 643.314 90.8359 642.387 88.9316L621.879 43.1553C617.68 34.5127 614.97 29.0684 613.749 26.8223C612.724 28.3848 611.234 31.4365 609.281 35.9775C607.377 40.5186 606.278 43.2529 605.985 44.1807L588.847 86.5146C587.675 89.3955 586.625 92.0811 585.697 94.5713C584.818 97.0127 583.866 99.625 582.841 102.408C581.864 105.143 580.766 108.292 579.545 111.856H578.373C577.494 106.925 575.248 97.916 571.635 84.8301L557.792 36.124C554.569 24.7959 550.98 14.4443 547.025 5.06934L534.281 2.50586V1.77344H587.675V2.50586Z" fill="url(#paint0_linear_202_308)"/>
<defs>
<linearGradient id="paint0_linear_202_308" x1="-127" y1="330.001" x2="769" y2="330.001" gradientUnits="userSpaceOnUse">
<stop stop-color="#FF2DD1"/>
<stop offset="0.81" stop-color="#FFF502"/>
<stop offset="0.9" stop-color="#7000FF"/>
</linearGradient>
</defs>
</svg>
