<svg width="775" height="105" viewBox="0 0 775 105" fill="none" xmlns="http://www.w3.org/2000/svg">
<path d="M16.2852 4.58789L55.4551 96.1211L57.8477 90.5156L21.207 4.58789H16.2852ZM48.3457 2.60547L30.4355 5.13477C32.9876 14.1582 36.998 25.0273 42.4668 37.7422L51.9688 59.8906C54.0651 64.9492 57.1868 71.4206 61.334 79.3047C62.9746 76.4336 64.9115 72.6055 67.1445 67.8203C69.4232 63.0352 71.4056 58.569 73.0918 54.4219L83.7559 29.0605C87.903 18.8978 90.7969 10.9225 92.4375 5.13477L71.7246 2.60547V1.92188H112.33V2.46875L99.8887 5.13477C97.1999 9.2819 93.2806 17.485 88.1309 29.7441L64.8887 84.9102C61.6074 92.612 59.1237 99.2428 57.4375 104.803H56.4805C53.8372 97.2832 51.0345 90.151 48.0723 83.4062L26.334 32.6836C22.278 23.1589 17.7207 13.9303 12.6621 4.99805L0.630859 2.60547V1.92188H48.3457V2.60547ZM173.854 0.486328C183.561 0.486328 191.969 2.10417 199.078 5.33984C206.188 8.57552 211.998 12.8138 216.51 18.0547C221.067 23.2956 224.394 28.8783 226.49 34.8027C228.632 40.6816 229.703 46.3327 229.703 51.7559C229.703 57.9538 228.495 64.0378 226.08 70.0078C223.71 75.9779 220.178 81.4466 215.484 86.4141C210.836 91.3359 205.048 95.278 198.121 98.2402C191.24 101.202 183.561 102.684 175.084 102.684C162.825 102.684 152.434 100.04 143.912 94.7539C135.39 89.4219 129.101 82.8366 125.045 74.998C120.989 67.1595 118.961 59.5033 118.961 52.0293C118.961 45.4212 120.237 39.0182 122.789 32.8203C125.387 26.6224 129.124 21.0853 134 16.209C138.922 11.2871 144.801 7.4362 151.637 4.65625C158.473 1.8763 165.878 0.486328 173.854 0.486328ZM174.264 5.27148C167.2 5.27148 160.66 7.11719 154.645 10.8086C148.674 14.5 143.912 19.832 140.357 26.8047C136.848 33.7773 135.094 42.0033 135.094 51.4824C135.094 61.6908 137.008 70.3268 140.836 77.3906C144.71 84.4089 149.654 89.627 155.67 93.0449C161.731 96.4173 167.975 98.1035 174.4 98.1035C179.641 98.1035 184.609 97.1009 189.303 95.0957C193.997 93.0905 198.189 90.1738 201.881 86.3457C205.572 82.472 208.443 77.7324 210.494 72.127C212.59 66.4759 213.639 60.1868 213.639 53.2598C213.639 43.7806 212.545 36.2155 210.357 30.5645C208.17 24.9134 204.957 19.9688 200.719 15.7305C197.118 12.1302 193.017 9.48698 188.414 7.80078C183.857 6.11458 179.14 5.27148 174.264 5.27148ZM177.75 2.46875V3.15234C182.171 3.47135 186.614 4.51953 191.08 6.29688C195.546 8.02865 199.716 10.763 203.59 14.5C207.509 18.1914 210.654 23.1816 213.023 29.4707C215.393 35.7598 216.578 43.3249 216.578 52.166C216.578 57.9538 215.872 63.4909 214.459 68.7773C213.092 74.0638 210.859 78.9401 207.76 83.4062C204.706 87.8724 200.696 91.5638 195.729 94.4805C190.761 97.3971 184.814 99.1973 177.887 99.8809V100.633C183.72 100.359 189.257 99.1061 194.498 96.873C199.739 94.64 204.387 91.4499 208.443 87.3027C212.545 83.11 215.781 78.0059 218.15 71.9902C220.52 65.9746 221.705 59.2754 221.705 51.8926C221.705 43.8262 220.475 36.7168 218.014 30.5645C215.553 24.3665 212.203 19.2168 207.965 15.1152C203.727 11.0137 199.01 7.91471 193.814 5.81836C188.665 3.72201 183.31 2.60547 177.75 2.46875ZM171.051 3.15234V2.46875C164.671 2.51432 158.45 3.88151 152.389 6.57031C146.327 9.25911 140.995 12.9049 136.393 17.5078C131.79 22.1107 128.189 27.3516 125.592 33.2305C123.04 39.1094 121.764 45.2845 121.764 51.7559C121.764 59.6855 123.906 67.4102 128.189 74.9297C132.519 82.4036 138.489 88.4876 146.1 93.1816C153.71 97.8757 162.073 100.359 171.188 100.633V99.8809C162.346 99.1061 154.531 96.349 147.74 91.6094C140.95 86.8698 135.777 80.9909 132.223 73.9727C128.714 66.9544 126.959 59.6855 126.959 52.166C126.959 45.9681 127.984 40.0208 130.035 34.3242C132.086 28.6276 135.048 23.5462 138.922 19.0801C142.796 14.6139 147.467 10.9909 152.936 8.21094C158.45 5.43099 164.488 3.74479 171.051 3.15234ZM257.184 4.58789V99.334H261.969V4.58789H257.184ZM288.014 102H236.334V101.316L253.014 98.7871C253.788 93.0905 254.358 86.2318 254.723 78.2109C255.133 70.1445 255.338 62.2604 255.338 54.5586V43.0742C255.338 27.4427 254.654 14.7507 253.287 4.99805L236.334 2.60547V1.92188H288.014V2.60547L270.924 4.99805C270.423 9.41862 270.058 13.429 269.83 17.0293C269.602 20.584 269.397 24.9134 269.215 30.0176C269.033 35.0762 268.941 39.8385 268.941 44.3047V59.4121C268.941 62.1921 269.033 66.7493 269.215 73.084C269.443 79.373 269.716 84.7051 270.035 89.0801C270.4 93.4551 270.742 96.7363 271.061 98.9238L288.014 101.316V102ZM289.518 2.60547V1.92188H324.039C326.318 5.02083 329.257 8.75781 332.857 13.1328C336.503 17.5078 339.739 21.2676 342.564 24.4121L373.189 58.4551C377.245 62.8757 380.39 66.2936 382.623 68.709C384.902 71.1243 387.841 74.0638 391.441 77.5273C391.715 74.3828 391.897 71.4434 391.988 68.709C392.079 65.9746 392.125 63.3997 392.125 60.9844V31.4531C392.125 20.8346 391.601 12.0618 390.553 5.13477L373.941 2.60547V1.92188H414.615V2.60547L398.004 5.27148C397.138 11.6517 396.705 19.8092 396.705 29.7441V104.666H396.021C389.049 95.8249 382.145 87.5534 375.309 79.8516L333.473 33.2305C327.275 26.6224 321.988 21.3587 317.613 17.4395C316.975 23.6374 316.656 29.4251 316.656 34.8027V78.0742C316.656 83.862 317.112 90.7663 318.023 98.7871L335.387 101.316V102H293.824V101.316L310.641 98.9238C311.188 95.6426 311.575 90.9714 311.803 84.9102C312.031 78.849 312.145 73.4486 312.145 68.709V35.2129C312.145 31.248 312.076 27.3288 311.939 23.4551C311.803 19.5358 311.552 15.6621 311.188 11.834L302.096 5.13477L289.518 2.60547ZM309.957 4.45117L392.535 96.2578V89.832L315.699 4.45117H309.957ZM511.617 4.58789V76.0918C511.617 79.373 511.002 82.8822 509.771 86.6191C508.541 90.3105 506.376 93.5007 503.277 96.1895C500.224 98.8783 496.145 100.245 491.041 100.291L491.314 101.043C497.512 100.724 502.457 99.3112 506.148 96.8047C509.84 94.2982 512.46 90.903 514.01 86.6191C515.605 82.3353 516.402 77.1855 516.402 71.1699V4.58789H511.617ZM523.512 37.332V68.2305C523.512 79.5781 520.686 88.2142 515.035 94.1387C509.43 100.018 501.933 102.957 492.545 102.957C490.995 102.957 488.99 102.82 486.529 102.547C484.068 102.319 481.562 101.977 479.01 101.521C476.503 101.066 474.065 100.428 471.695 99.6074L468.893 77.2539H469.918L476.891 94.4121C481.311 97.3288 485.846 98.7871 490.494 98.7871C495.416 98.7871 499.859 96.8958 503.824 93.1133C507.789 89.2852 509.771 82.7227 509.771 73.4258V39.998C509.771 35.0306 509.589 28.901 509.225 21.6094C508.86 14.3177 508.404 8.7806 507.857 4.99805L489.742 2.60547V1.92188H539.439V2.60547L525.221 5.13477C524.081 15.5254 523.512 26.2578 523.512 37.332ZM600.553 0.486328C610.26 0.486328 618.668 2.10417 625.777 5.33984C632.887 8.57552 638.697 12.8138 643.209 18.0547C647.766 23.2956 651.093 28.8783 653.189 34.8027C655.331 40.6816 656.402 46.3327 656.402 51.7559C656.402 57.9538 655.195 64.0378 652.779 70.0078C650.41 75.9779 646.878 81.4466 642.184 86.4141C637.535 91.3359 631.747 95.278 624.82 98.2402C617.939 101.202 610.26 102.684 601.783 102.684C589.524 102.684 579.133 100.04 570.611 94.7539C562.089 89.4219 555.8 82.8366 551.744 74.998C547.688 67.1595 545.66 59.5033 545.66 52.0293C545.66 45.4212 546.936 39.0182 549.488 32.8203C552.086 26.6224 555.823 21.0853 560.699 16.209C565.621 11.2871 571.5 7.4362 578.336 4.65625C585.172 1.8763 592.577 0.486328 600.553 0.486328ZM600.963 5.27148C593.899 5.27148 587.359 7.11719 581.344 10.8086C575.374 14.5 570.611 19.832 567.057 26.8047C563.548 33.7773 561.793 42.0033 561.793 51.4824C561.793 61.6908 563.707 70.3268 567.535 77.3906C571.409 84.4089 576.354 89.627 582.369 93.0449C588.43 96.4173 594.674 98.1035 601.1 98.1035C606.34 98.1035 611.308 97.1009 616.002 95.0957C620.696 93.0905 624.889 90.1738 628.58 86.3457C632.271 82.472 635.143 77.7324 637.193 72.127C639.29 66.4759 640.338 60.1868 640.338 53.2598C640.338 43.7806 639.244 36.2155 637.057 30.5645C634.869 24.9134 631.656 19.9688 627.418 15.7305C623.818 12.1302 619.716 9.48698 615.113 7.80078C610.556 6.11458 605.839 5.27148 600.963 5.27148ZM604.449 2.46875V3.15234C608.87 3.47135 613.313 4.51953 617.779 6.29688C622.245 8.02865 626.415 10.763 630.289 14.5C634.208 18.1914 637.353 23.1816 639.723 29.4707C642.092 35.7598 643.277 43.3249 643.277 52.166C643.277 57.9538 642.571 63.4909 641.158 68.7773C639.791 74.0638 637.558 78.9401 634.459 83.4062C631.406 87.8724 627.395 91.5638 622.428 94.4805C617.46 97.3971 611.513 99.1973 604.586 99.8809V100.633C610.419 100.359 615.956 99.1061 621.197 96.873C626.438 94.64 631.087 91.4499 635.143 87.3027C639.244 83.11 642.48 78.0059 644.85 71.9902C647.219 65.9746 648.404 59.2754 648.404 51.8926C648.404 43.8262 647.174 36.7168 644.713 30.5645C642.252 24.3665 638.902 19.2168 634.664 15.1152C630.426 11.0137 625.709 7.91471 620.514 5.81836C615.364 3.72201 610.009 2.60547 604.449 2.46875ZM597.75 3.15234V2.46875C591.37 2.51432 585.149 3.88151 579.088 6.57031C573.027 9.25911 567.695 12.9049 563.092 17.5078C558.489 22.1107 554.889 27.3516 552.291 33.2305C549.739 39.1094 548.463 45.2845 548.463 51.7559C548.463 59.6855 550.605 67.4102 554.889 74.9297C559.218 82.4036 565.188 88.4876 572.799 93.1816C580.41 97.8757 588.772 100.359 597.887 100.633V99.8809C589.046 99.1061 581.23 96.349 574.439 91.6094C567.649 86.8698 562.477 80.9909 558.922 73.9727C555.413 66.9544 553.658 59.6855 553.658 52.166C553.658 45.9681 554.684 40.0208 556.734 34.3242C558.785 28.6276 561.747 23.5462 565.621 19.0801C569.495 14.6139 574.166 10.9909 579.635 8.21094C585.149 5.43099 591.188 3.74479 597.75 3.15234ZM713.004 99.334H717.652V56.6094L685.113 4.45117H680.123L713.004 57.0879V99.334ZM676.158 4.99805L662.35 2.60547V1.92188H715.533V2.60547L695.094 4.99805C698.147 11.7428 702.454 19.6042 708.014 28.582C713.574 37.5599 718.541 44.8516 722.916 50.457C727.701 45.1706 733.352 37.765 739.869 28.2402C746.386 18.7155 751.24 10.9681 754.43 4.99805L734.4 2.60547V1.92188H774.186V2.74219L762.428 4.99805C759.739 8.18815 757.141 11.4694 754.635 14.8418C752.128 18.2142 748.893 22.7259 744.928 28.377C740.963 34.028 737.841 38.5625 735.562 41.9805C733.284 45.3529 729.866 50.5254 725.309 57.498C724.944 63.1035 724.762 69.347 724.762 76.2285C724.762 85.6165 725.468 93.1816 726.881 98.9238L743.834 101.316V102H692.018V101.316L708.629 98.9238C709.358 96.0527 709.928 92.1335 710.338 87.166C710.794 82.1986 711.021 77.5273 711.021 73.1523C711.021 69.8711 710.885 64.7441 710.611 57.7715C707.968 52.9408 704.596 47.2214 700.494 40.6133C696.438 33.9596 692.245 27.4655 687.916 21.1309C683.587 14.7507 679.667 9.37305 676.158 4.99805Z" fill="black"/>
</svg>
