<svg width="339" height="31" viewBox="0 0 339 31" fill="none" xmlns="http://www.w3.org/2000/svg">
<path d="M25.7467 4.64L17.5067 30H13.3467L4.18672 4.36C3.12005 4.14666 1.92005 3.82667 0.586719 3.4L0.706719 2H11.1067C11.5601 2.85333 11.7867 3.65333 11.7867 4.4C10.4801 4.48 9.28005 4.56 8.18672 4.64L15.2667 25.8H15.4667C16.0534 23.8 18.2801 16.6533 22.1467 4.36C21.0801 4.2 19.8267 3.88 18.3867 3.4L18.5067 2H28.5467C29.0001 2.85333 29.2267 3.65333 29.2267 4.4C28.0001 4.48 26.8401 4.56 25.7467 4.64ZM43.4855 28.08C45.7255 28.08 47.2321 27.3867 48.0055 26C48.8055 24.5867 49.2055 22.5867 49.2055 20C49.2055 15.8933 48.2988 13.32 46.4855 12.28C45.7388 11.8533 44.6855 11.64 43.3255 11.64C41.9921 11.64 40.7255 11.92 39.5255 12.48C38.4588 14.5333 37.9255 16.92 37.9255 19.64C37.9255 22.2533 38.2721 24.2667 38.9655 25.68C39.7655 27.28 41.2721 28.08 43.4855 28.08ZM34.2455 20C34.2455 16.6133 35.0188 13.9733 36.5655 12.08C38.1121 10.16 40.4988 9.2 43.7255 9.2C46.9521 9.2 49.2855 10.08 50.7255 11.84C52.1655 13.5733 52.8855 16.1467 52.8855 19.56C52.8855 22.9733 52.1121 25.6533 50.5655 27.6C49.0455 29.5467 46.7255 30.52 43.6055 30.52C40.4855 30.52 38.1388 29.6133 36.5655 27.8C35.0188 25.9867 34.2455 23.3867 34.2455 20ZM61.9289 27.52L61.6089 12.44H58.5289L58.4089 11.04C58.6756 10.8533 59.4489 10.5067 60.7289 10L64.0089 4.88C64.5422 4.93333 64.9556 5.06667 65.2489 5.28L65.2089 9.68C67.2089 9.68 68.8489 9.81333 70.1289 10.08C70.1289 10.8 69.9022 11.5867 69.4489 12.44H65.1289C65.0756 15.64 65.0222 20.4933 64.9689 27C66.4622 27.08 67.9556 27.3467 69.4489 27.8L69.4089 29.2C69.0356 29.44 68.0756 29.72 66.5289 30.04C65.0089 30.36 63.7556 30.52 62.7689 30.52C62.6356 30.3067 62.4622 29.8533 62.2489 29.16C62.0356 28.44 61.9289 27.8933 61.9289 27.52ZM86.2352 27.76C87.4085 27.76 89.2485 27.2 91.7552 26.08C92.2618 26.7733 92.5285 27.3867 92.5552 27.92C91.1952 28.72 89.8618 29.3467 88.5552 29.8C87.2485 30.2533 86.3152 30.48 85.7552 30.48C82.6618 30.48 80.3018 29.56 78.6752 27.72C77.0485 25.8533 76.2352 23.2533 76.2352 19.92C76.2352 16.5867 77.0218 13.9733 78.5952 12.08C80.1952 10.16 82.5818 9.2 85.7552 9.2C88.2085 9.2 90.0752 10.08 91.3552 11.84C92.6618 13.6 93.3152 15.96 93.3152 18.92C93.1018 19.2933 92.9285 19.5467 92.7952 19.68L79.9152 19.48C79.9418 22.1733 80.4085 24.2267 81.3152 25.64C82.2485 27.0533 83.8885 27.76 86.2352 27.76ZM89.6752 17.2C89.6752 15.44 89.3552 14.08 88.7152 13.12C88.0752 12.1333 87.0085 11.64 85.5152 11.64C84.0218 11.64 82.6885 11.92 81.5152 12.48C80.7152 14.08 80.2085 15.72 79.9952 17.4C82.1018 17.3733 85.3285 17.3067 89.6752 17.2ZM126.695 6.52L126.055 6.48H125.895L124.655 2.56C124.068 2.45333 123.548 2.4 123.095 2.4C121.788 2.4 120.868 2.90667 120.335 3.92C119.828 4.93333 119.575 6.70667 119.575 9.24V9.72H120.175C122.015 9.72 123.428 9.82667 124.415 10.04C124.441 10.04 124.495 10.0533 124.575 10.08C124.548 10.8533 124.321 11.64 123.895 12.44H119.335V27.28H119.935C120.975 27.28 121.895 27.3333 122.695 27.44C123.495 27.5467 123.921 27.6267 123.975 27.68C123.975 28.3733 123.748 29.1467 123.295 30H112.815L112.695 28.6C113.921 28.1733 115.041 27.8533 116.055 27.64V12.44H112.975L112.855 11.04C113.815 10.6667 114.881 10.3733 116.055 10.16V8.52C116.055 5.50667 116.615 3.30667 117.735 1.92C118.188 1.38666 118.828 0.946665 119.655 0.599999C120.481 0.226666 121.441 0.0399995 122.535 0.0399995C124.668 0.0399995 126.695 0.506666 128.615 1.44C128.615 3.09333 128.455 4.74667 128.135 6.4C127.841 6.48 127.361 6.52 126.695 6.52ZM140.501 28.08C142.741 28.08 144.248 27.3867 145.021 26C145.821 24.5867 146.221 22.5867 146.221 20C146.221 15.8933 145.314 13.32 143.501 12.28C142.754 11.8533 141.701 11.64 140.341 11.64C139.008 11.64 137.741 11.92 136.541 12.48C135.474 14.5333 134.941 16.92 134.941 19.64C134.941 22.2533 135.288 24.2667 135.981 25.68C136.781 27.28 138.288 28.08 140.501 28.08ZM131.261 20C131.261 16.6133 132.034 13.9733 133.581 12.08C135.128 10.16 137.514 9.2 140.741 9.2C143.968 9.2 146.301 10.08 147.741 11.84C149.181 13.5733 149.901 16.1467 149.901 19.56C149.901 22.9733 149.128 25.6533 147.581 27.6C146.061 29.5467 143.741 30.52 140.621 30.52C137.501 30.52 135.154 29.6133 133.581 27.8C132.034 25.9867 131.261 23.3867 131.261 20ZM168.265 12.56C168.131 12.4267 167.838 12.36 167.385 12.36C166.931 12.36 166.251 12.52 165.345 12.84C164.465 13.16 163.665 13.5333 162.945 13.96C162.785 19.88 162.678 24.32 162.625 27.28L165.985 27.6C165.985 28.3467 165.758 29.1467 165.305 30H156.105L155.985 28.6C157.211 28.1733 158.411 27.8533 159.585 27.64C159.425 20.8667 159.291 15.8533 159.185 12.6C157.718 12.52 156.545 12.36 155.665 12.12L155.825 10.04C157.238 9.64 159.331 9.44 162.105 9.44C162.531 10.1067 162.798 10.96 162.905 12C165.971 10.1333 167.798 9.2 168.385 9.2C168.971 9.2 169.651 9.32 170.425 9.56C171.198 9.77333 171.771 10.0133 172.145 10.28C172.145 12.9467 171.891 15.12 171.385 16.8C171.011 16.9067 170.571 16.96 170.065 16.96C169.585 16.96 169.251 16.9467 169.065 16.92L168.265 12.56ZM203.864 4.48C203.731 8.96 203.584 16.56 203.424 27.28L206.784 27.6C206.784 28.3467 206.557 29.1467 206.104 30H196.904L196.784 28.6C198.331 28.04 199.557 27.72 200.464 27.64C200.197 17.3467 199.984 9.62667 199.824 4.48H193.984L193.024 8.56L190.704 8.4C190.304 6.77333 190.104 5.12 190.104 3.44C190.104 3.12 190.131 2.64 190.184 2H213.224C213.277 2.34667 213.304 2.88 213.304 3.6C213.304 5.04 213.117 6.61333 212.744 8.32C212.157 8.48 211.384 8.56 210.424 8.56L209.424 4.48H203.864ZM225.988 5.88C225.294 6.04 224.614 6.12 223.948 6.12C223.308 6.12 222.668 6.08 222.028 6C221.868 5.25333 221.788 4.50667 221.788 3.76C221.788 2.98666 221.814 2.41333 221.868 2.04C222.454 1.90666 223.068 1.84 223.708 1.84C224.374 1.84 225.081 1.86666 225.828 1.92C225.988 2.61333 226.068 3.29333 226.068 3.96C226.068 4.6 226.041 5.24 225.988 5.88ZM218.708 10.08C220.974 9.68 222.734 9.48 223.988 9.48C225.241 9.48 226.041 9.50667 226.388 9.56C226.388 10.2 226.308 10.9067 226.148 11.68C225.988 12.4533 225.894 12.8267 225.868 12.8L225.508 27.28L228.868 27.6C228.868 28.3467 228.641 29.1467 228.188 30H218.988L218.868 28.6C220.094 28.1733 221.294 27.8533 222.468 27.64C222.308 20.9733 222.174 15.9733 222.068 12.64C220.521 12.64 219.348 12.48 218.548 12.16L218.708 10.08ZM243.812 30.48C240.612 30.48 238.226 29.5867 236.652 27.8C235.079 25.9867 234.292 23.4133 234.292 20.08C234.292 12.8267 237.519 9.2 243.972 9.2C245.012 9.2 246.092 9.36 247.212 9.68C248.332 9.97333 249.212 10.3067 249.852 10.68C249.772 13.16 249.519 14.92 249.092 15.96C248.612 16.0933 248.226 16.16 247.932 16.16H247.252C247.119 16.16 246.959 16.1467 246.772 16.12L245.772 11.72C244.892 11.64 244.386 11.6 244.252 11.6C242.332 11.6 240.799 12.1867 239.652 13.36C238.532 14.5333 237.972 16.5067 237.972 19.28C237.972 22.0533 238.399 24.16 239.252 25.6C240.132 27.04 241.812 27.76 244.292 27.76C245.466 27.76 247.306 27.2 249.812 26.08C250.319 26.7733 250.586 27.3867 250.612 27.92C249.252 28.72 247.919 29.3467 246.612 29.8C245.306 30.2533 244.372 30.48 243.812 30.48ZM261.76 0.0399995C262.586 0.0399995 263.173 0.0666658 263.52 0.119998C263.52 0.946666 263.346 2.01333 263 3.32C262.84 10.36 262.76 15.68 262.76 19.28L269.2 12.4L266 12.08C266 11.3333 266.226 10.5333 266.68 9.68H276.84L276.96 11.44C276.346 11.68 275.226 11.9867 273.6 12.36L268.12 17.32L274.88 27.28L278.24 27.6C278.24 28.3467 278.013 29.1467 277.56 30H272.08L265.84 19.36L262.72 22.2C262.666 24.44 262.64 26.1333 262.64 27.28L266 27.6C266 28.3467 265.773 29.1467 265.32 30H256.12L256 28.6C257.226 28.1733 258.426 27.8533 259.6 27.64C259.44 16.8667 259.306 8.72 259.2 3.2C257.733 3.12 256.56 2.96 255.68 2.72L255.84 0.639999C257.2 0.239999 259.173 0.0399995 261.76 0.0399995ZM293.352 27.76C294.526 27.76 296.366 27.2 298.872 26.08C299.379 26.7733 299.646 27.3867 299.672 27.92C298.312 28.72 296.979 29.3467 295.672 29.8C294.366 30.2533 293.432 30.48 292.872 30.48C289.779 30.48 287.419 29.56 285.792 27.72C284.166 25.8533 283.352 23.2533 283.352 19.92C283.352 16.5867 284.139 13.9733 285.712 12.08C287.312 10.16 289.699 9.2 292.872 9.2C295.326 9.2 297.192 10.08 298.472 11.84C299.779 13.6 300.432 15.96 300.432 18.92C300.219 19.2933 300.046 19.5467 299.912 19.68L287.032 19.48C287.059 22.1733 287.526 24.2267 288.432 25.64C289.366 27.0533 291.006 27.76 293.352 27.76ZM296.792 17.2C296.792 15.44 296.472 14.08 295.832 13.12C295.192 12.1333 294.126 11.64 292.632 11.64C291.139 11.64 289.806 11.92 288.632 12.48C287.832 14.08 287.326 15.72 287.112 17.4C289.219 17.3733 292.446 17.3067 296.792 17.2ZM309.821 27.52L309.501 12.44H306.421L306.301 11.04C306.568 10.8533 307.341 10.5067 308.621 10L311.901 4.88C312.434 4.93333 312.848 5.06667 313.141 5.28L313.101 9.68C315.101 9.68 316.741 9.81333 318.021 10.08C318.021 10.8 317.794 11.5867 317.341 12.44H313.021C312.968 15.64 312.914 20.4933 312.861 27C314.354 27.08 315.848 27.3467 317.341 27.8L317.301 29.2C316.928 29.44 315.968 29.72 314.421 30.04C312.901 30.36 311.648 30.52 310.661 30.52C310.528 30.3067 310.354 29.8533 310.141 29.16C309.928 28.44 309.821 27.8933 309.821 27.52ZM327.287 27.44C328.221 27.84 329.354 28.04 330.687 28.04C332.047 28.04 333.114 27.7867 333.887 27.28C334.661 26.7733 335.047 26.08 335.047 25.2C335.047 24.32 334.687 23.5867 333.967 23C333.247 22.4133 332.367 21.8933 331.327 21.44C330.287 20.9867 329.247 20.5067 328.207 20C327.167 19.4933 326.287 18.8267 325.567 18C324.847 17.1733 324.487 16.2133 324.487 15.12C324.487 13.28 325.101 11.84 326.327 10.8C327.554 9.73333 329.247 9.2 331.407 9.2C333.594 9.2 335.647 9.69333 337.567 10.68C337.594 10.9467 337.607 11.6667 337.607 12.84C337.607 13.9867 337.487 14.9733 337.247 15.8C336.607 16.0133 335.847 16.12 334.967 16.12L333.647 12.04C333.061 11.7467 332.261 11.6 331.247 11.6C330.261 11.6 329.474 11.8667 328.887 12.4C328.301 12.9067 328.007 13.56 328.007 14.36C328.007 15.1333 328.367 15.8133 329.087 16.4C329.834 16.9867 330.727 17.52 331.767 18C332.807 18.4533 333.847 18.9467 334.887 19.48C335.927 19.9867 336.807 20.6667 337.527 21.52C338.274 22.3467 338.647 23.3067 338.647 24.4C338.647 26.32 337.901 27.8267 336.407 28.92C334.941 29.9867 333.127 30.52 330.967 30.52C329.794 30.52 328.541 30.3333 327.207 29.96C325.874 29.56 324.754 29.0533 323.847 28.44C323.847 26.6533 324.007 25.0667 324.327 23.68C324.941 23.5733 325.767 23.52 326.807 23.52L327.287 27.44Z" fill="black"/>
</svg>
