<svg width="614" height="567" viewBox="0 0 614 567" fill="none" xmlns="http://www.w3.org/2000/svg">
<mask id="path-1-inside-1_111_126" fill="white">
<path fill-rule="evenodd" clip-rule="evenodd" d="M449.608 566.515L-0.000130115 201.039L49.5127 140.128C49.5711 140.176 49.6297 140.224 49.6884 140.271C71.5639 158.053 103.713 154.735 121.495 132.86C139.277 110.984 135.959 78.8351 114.083 61.053L113.986 60.9745L113.907 60.9103L163.419 -0.000132859L613.028 365.476L562.657 427.442C541.369 410.296 510.202 413.566 492.942 434.8C475.682 456.033 478.846 487.211 499.98 504.548L449.608 566.515Z"/>
</mask>
<path fill-rule="evenodd" clip-rule="evenodd" d="M449.608 566.515L-0.000130115 201.039L49.5127 140.128C49.5711 140.176 49.6297 140.224 49.6884 140.271C71.5639 158.053 103.713 154.735 121.495 132.86C139.277 110.984 135.959 78.8351 114.083 61.053L113.986 60.9745L113.907 60.9103L163.419 -0.000132859L613.028 365.476L562.657 427.442C541.369 410.296 510.202 413.566 492.942 434.8C475.682 456.033 478.846 487.211 499.98 504.548L449.608 566.515Z" fill="white"/>
<path d="M-0.000130115 201.039L-2.32804 199.146L-4.22035 201.474L-1.89244 203.367L-0.000130115 201.039ZM449.608 566.515L447.716 568.843L450.044 570.735L451.936 568.407L449.608 566.515ZM49.5127 140.128L51.4151 137.808L49.0853 135.898L47.1848 138.236L49.5127 140.128ZM114.083 61.053L115.975 58.7251L115.973 58.723L114.083 61.053ZM113.986 60.9745L115.876 58.6445L115.871 58.6401L113.986 60.9745ZM113.907 60.9103L111.579 59.018L109.68 61.3539L112.023 63.2447L113.907 60.9103ZM163.419 -0.000132859L165.312 -2.32805L162.984 -4.22035L161.092 -1.89244L163.419 -0.000132859ZM613.028 365.476L615.356 367.368L617.248 365.04L614.92 363.148L613.028 365.476ZM562.657 427.442L560.775 429.779L563.101 431.652L564.985 429.335L562.657 427.442ZM499.98 504.548L502.308 506.44L504.192 504.122L501.883 502.228L499.98 504.548ZM-1.89244 203.367L447.716 568.843L451.501 564.187L1.89218 198.711L-1.89244 203.367ZM47.1848 138.236L-2.32804 199.146L2.32778 202.931L51.8406 142.02L47.1848 138.236ZM51.5807 137.943C51.5255 137.899 51.4702 137.853 51.4151 137.808L47.6103 142.448C47.672 142.498 47.7339 142.549 47.7961 142.599L51.5807 137.943ZM119.167 130.967C102.43 151.557 72.1705 154.68 51.5807 137.943L47.7961 142.599C70.9573 161.426 104.996 157.913 123.823 134.752L119.167 130.967ZM112.191 63.3809C132.781 80.1179 135.904 110.377 119.167 130.967L123.823 134.752C142.65 111.591 139.137 77.5522 115.975 58.7251L112.191 63.3809ZM112.097 63.3045L112.193 63.383L115.973 58.723L115.876 58.6445L112.097 63.3045ZM112.023 63.2447L112.102 63.3089L115.871 58.6401L115.791 58.5759L112.023 63.2447ZM161.092 -1.89244L111.579 59.018L116.235 62.8026L165.747 1.89217L161.092 -1.89244ZM614.92 363.148L165.312 -2.32805L161.527 2.32778L611.136 367.804L614.92 363.148ZM564.985 429.335L615.356 367.368L610.7 363.584L560.329 425.55L564.985 429.335ZM495.27 436.692C511.488 416.741 540.772 413.667 560.775 429.779L564.539 425.106C541.965 406.924 508.916 410.392 490.614 432.907L495.27 436.692ZM501.883 502.228C482.025 485.938 479.052 456.643 495.27 436.692L490.614 432.907C472.312 455.423 475.667 488.483 498.077 506.867L501.883 502.228ZM451.936 568.407L502.308 506.44L497.652 502.655L447.28 564.622L451.936 568.407Z" fill="white" mask="url(#path-1-inside-1_111_126)"/>
</svg>
